<?xml version="1.0" standalone="no"?>
<!DOCTYPE svg PUBLIC "-//W3C//DTD SVG 20010904//EN"
 "http://www.w3.org/TR/2001/REC-SVG-20010904/DTD/svg10.dtd">
<svg version="1.0" xmlns="http://www.w3.org/2000/svg"
 width="344.000000pt" height="344.000000pt" viewBox="0 0 344.000000 344.000000"
 preserveAspectRatio="xMidYMid meet">
<metadata>
Created by potrace 1.14, written by Peter Selinger 2001-2017
</metadata>
<g transform="translate(0.000000,344.000000) scale(0.100000,-0.100000)"
fill="#000000" stroke="none">
<path d="M1505 2893 c-111 -18 -224 -56 -332 -109 -100 -51 -271 -174 -346
-252 l-49 -49 41 -82 c108 -213 348 -609 361 -594 4 4 146 244 315 533 170
289 315 535 323 548 l15 23 -124 -2 c-68 -1 -160 -8 -204 -16z"/>
<path d="M1887 2878 c-26 -41 -377 -647 -377 -651 0 -1 290 -4 645 -5 455 -2
645 0 645 8 0 17 -49 110 -93 175 -97 143 -322 329 -489 404 -83 37 -207 76
-270 85 -42 6 -48 5 -61 -16z"/>
<path d="M701 2366 c-139 -246 -202 -560 -166 -821 24 -173 39 -220 75 -247
23 -17 52 -18 393 -19 202 -1 371 2 375 5 10 10 -57 137 -171 328 -57 95 -184
313 -282 483 -97 171 -180 314 -185 318 -4 5 -21 -17 -39 -47z"/>
<path d="M2070 2136 c10 -27 66 -131 148 -276 36 -63 76 -135 90 -160 152
-273 389 -660 403 -660 10 0 126 250 152 330 81 241 83 466 7 695 l-30 91
-389 0 -389 0 8 -20z"/>
<path d="M2046 1253 c-125 -214 -232 -395 -237 -403 -35 -58 -164 -280 -176
-304 l-15 -29 125 6 c202 10 363 50 520 128 146 73 320 208 368 286 l22 35
-21 36 c-41 75 -62 113 -206 367 -82 143 -149 261 -150 263 -2 1 -105 -172
-230 -385z"/>
<path d="M644 1209 c-16 -27 91 -190 194 -296 179 -185 375 -315 556 -367 55
-16 132 -24 141 -14 3 2 40 65 83 139 44 73 132 223 196 333 64 109 115 201
112 203 -7 7 -1278 9 -1282 2z"/>
</g>
</svg>
